<?xml version="1.0" encoding="UTF-8"?>
<svg xmlns="http://www.w3.org/2000/svg" viewBox="0 0 2400 2400">
  <!-- Main G shape -->
  <path d="M 1205 950 C 950 943 922 1133 1061 1171 C 1120 1186 1196 1192 1394 1163 C 1405 1352 1401
           1366 1353 1466 C 1253 1634 926 1633 837 1574 C 624 1414 572 1277 564 987 C 569 693 788
           412 1072 478 C 1203 504 1293 557 1319 605 C 1344 663 1370 695 1411 692 C 1491 687 1518
           557 1491 495 C 1475 438 1188 203 841 329 C 555 438 397 667 389 906 C 370 1670 878 1794
           1007 1794 C 1429 1775 1540 1538 1572 1392 C 1607 1187 1614 1178 1504 1003 C 1457 941
           1342 920 1205 950"
        fill="#2D5A27"
        stroke="#1C3D1A"
        stroke-width="2"/>
  
  <!-- Leaf 1 -->
  <path d="M 1117 298 C 1164 247 1291 244 1323 310 C 1322 286 1334 253 1339 252 C 1348 244 1350 243
           1363 242 C 1410 252 1424 256 1451 280 C 1483 300 1525 328 1549 386 C 1580 444 1579 487
           1564 551 C 1547 608 1538 620 1519 650 C 1496 674 1492 693 1477 713 C 1467 729 1456 737
           1447 738 C 1465 705 1460 678 1455 668 C 1435 612 1408.3333 602.6667 1385 570 C 1327 528
           1300 491 1268 452 C 1251 426 1253 411 1242 377 C 1226 354 1234 339 1238 313 C 1243 299
           1251 291 1266 285 C 1316 294 1297 304 1328 318 C 1352 322 1364 332 1378 344 C 1403 368
           1418 377 1434 404 C 1455 423 1492 512 1489 584 C 1490 613 1489 632 1483 663 C 1493 633
           1493 603 1493 584 C 1498 505 1467 434 1440 400 C 1418 367 1423 379 1382 339 C 1363 322
           1347 316 1323 310 L 1324 316 C 1312 309 1306 302 1301 296 C 1290 288 1282 286 1267 283 C
           1214 267 1183 273 1128 299 Z"
        fill="#4A7B3F"
        stroke="#2D5A27"
        stroke-width="1"/>
  
  <!-- Leaf 2 -->
  <path d="M 871 319 C 880 305 889 296 899 289 C 898 303 903 303 909 308 C 919 312 947 307 972 299
           C 993 281 1015 269 1037 250 C 1089 205 1107 194 1136 195 C 1150 199 1157 207 1163 218 C
           1161 200 1153 195 1140 187 C 1068 156 1044 160 988 163 C 927 178 899 208 883 239 C 881
           262 892 276 915 269 C 921 264 919 262 920 257 C 933 234 963.3333 221.6667 985 204 C 1004
           192 1026 188 1049 183 C 1018 193 1009 194 989 206 C 957 227 949 228 929 253 C 925 257
           923 262 927 265 C 931 264 935 264 939 266 C 929 264 921 268 916 270 L 915 269 C 899 277
           896 279 885 291 C 877 302 868 310 862 322 Z"
        fill="#4A7B3F"/>
  
  <!-- Leaf 3 -->
  <path d="M 728 382 C 730 325 710 312 700 300 C 716 301 730 304 745 298 C 755 295 771 280 774 266
           C 774 218 750 195 731 181 C 696 150 663 138 625 134 C 540 132 518 134 434 168 C 423 174
           413 178 414 186 C 419 178 427 175 434 174 C 451 169 482 177 508 220 C 557 311 572 329
           637 346 C 666 348 691 345 695 329 C 697 318 699 311 697 303 C 686 273 682 270 671 254 C
           632 206 612 190 567 171 C 615 183 636 200 675 251 C 684 261 689 270 697 303 C 702 314
           719 318 716 389 Z"
        fill="#4A7B3F"/>
  
  <!-- Leaf 4 -->
  <path d="M 533 541 C 529 509 499 498 490 500 C 501 491 506 478 511 465 C 508 434 506 423 470 402
           C 320 365 229 516 218 541 C 205 570 175 634 199 652 C 184 622 212 603 223 599 C 240 591
           285 590 335 599 C 390 610 416 603 466 587 C 507 564 515 551 519 522 C 508 507 500 504
           490 500 C 455 498 332 474 240 556 C 322 471 461 472 490 500 C 504 504 514 508 521 525 C
           524 532 527 535 527 549 Z"
        fill="#4A7B3F"/>
  
  <!-- Leaf 5 -->
  <path d="M 569 920 C 613 856 631 856 642 856 C 630 844 637 824 646 818 C 652 812 669 797 707 801
           C 778 803 823 879 820 908 C 814 892 809 891 803 888 C 732 888 749 903 659 905 C 659 905
           659 905 659 905 C 630 898 626 875 642 859 C 689 839 743 843 785 867 C 733 832 677 839
           642 856 L 642 859 C 617 860 592 891 576 918 C 626 900 650 926 657 961 C 663 1017 631
           1054 571 1084 C 486 1137 479 1110 431 1164 C 433 1148 435 1141 431 1130 C 403 1089 398
           1030 406 974 C 413 931 432 882 492 860 C 528 855 556 860 570 885 C 573 895 575 906 570
           915 Z C 568.6667 922 568.3333 924 568 926"
        fill="#4A7B3F"/>
  
  <!-- Leaf 6 -->
  <path d="M 441 1318 C 406 1236 394 1140 339 1116 C 293 1095 269 1103 262 1110 C 259 1114 240 1127
           258 1149 C 254 1134 256 1126 262 1119 C 261 1128 265 1136 271 1140 C 282 1145 274 1145
           282 1136 C 282 1124 285 1118 291 1113 C 301 1109 317 1107 341 1129 C 373 1171 401 1220
           427 1296 C 410 1273 380 1267 375 1269 C 346 1267 306 1330 323 1403 C 336 1453 354 1477
           383 1494 C 353 1454 354 1433 352 1410 C 351 1391 353 1377 358 1367 C 382 1344 378 1318
           373 1309 C 379 1299 385 1299 391 1288 C 415 1297 430 1313 462 1374"
        fill="#4A7B3F"/>
  
  <!-- Leaf 7 -->
  <path d="M 834 1573 C 760 1545 765 1534 766 1466 C 797 1399 886 1368 966 1382 C 1040 1396 1037
           1411 1076 1418 C 1050 1462 1066 1481 1040 1555 C 999 1632 985 1630 926 1656 C 890 1673
           799 1649 834 1573 C 858 1547 910 1504 917 1497 C 967 1453 972 1459 994 1437 C 952 1456
           964 1456 913 1493 C 864 1531 857 1544 834 1570"
        fill="#4A7B3F"/>
  
  <!-- Leaf 8 -->
  <path d="M 1495 1572 C 1568 1498 1575 1508 1618 1482 C 1598 1504 1624 1541 1668 1547 C 1708 1548
           1725 1538 1755 1511 C 1813 1457 1799 1432 1836 1439 C 1792 1417 1748 1328 1639 1371 C
           1584 1396 1575 1456 1621 1476 C 1639 1469 1654 1453 1694 1444 C 1718 1439 1738 1425 1781
           1426 C 1722 1434 1715 1445 1695 1449 C 1655 1456 1639 1471 1618 1482 L 1621 1476 C 1621
           1476 1621 1476 1621 1476 C 1589 1483 1563 1499 1525 1522"
        fill="#4A7B3F"/>
  
  <!-- Leaf 9 -->
  <path d="M 1282 1539 C 1286 1483 1254 1429 1261 1379 C 1274 1279 1327 1222 1357 1215 C 1334 1199
           1323 1178 1344 1153 C 1406 1098 1542 1119 1532 1140 C 1509 1130 1504 1172 1489 1198 C
           1478 1217 1461 1270 1383 1275 C 1344 1272 1349 1226 1358 1219 C 1376.6667 1215.3333 1401
           1186 1421 1181 C 1437 1176 1470 1141 1493 1140 C 1466 1139 1438 1172 1419 1178 C 1407
           1180 1360 1221 1357 1215 L 1358 1219 C 1293 1265 1281 1319 1275 1381 C 1269 1437 1293
           1513 1294 1531"
        fill="#4A7B3F"/>
  
  <!-- Leaf 10 - topside -->
  <path d="M 1452 962 C 1489 942 1515 955 1519 966 C 1521 958 1519 950 1510 944 C 1526 938 1537 938
           1554 953 C 1656 1002 1663 1077 1637 1151 C 1625 1185 1616 1191 1602 1202 C 1612 1193
           1635 1168 1636 1135 C 1634 1097 1611 1090 1602 1080 C 1571 1044 1535 1035 1515 1009 C
           1506 998 1503 986 1505 970 C 1508 972 1515 973 1519 971 C 1548 974 1552 978 1569 985 C
           1577 994 1625 1003 1641 1080 C 1633 1028 1615 1012 1592 994 C 1572 980 1552 973 1519 966
           L 1519 971 C 1512 974 1505 968 1505 964 C 1481 951 1465 962 1463 968 Z"
        fill="#4A7B3F"/>
  
  <!-- Leaf 10 - underside -->
  <path d="M 1602 1080 C 1611 1090 1634 1097 1636 1135 C 1635 1168 1616 1191 1602 1202 C 1581 1149
           1614 1144 1602 1080"
        fill="#2D5A27"/>
  
  <!-- Leaf 11 -->
  <path d="M 1190 1007 C 1232 949 1190 903 1116 910 C 1070 914 982 987 968 1052 C 960 1080 944 1185
           959 1194 C 958 1167 970 1148 988 1148 C 1080 1146 1108 1185 1189 1149 C 1255 1120 1267
           1002 1190 1009 C 1055 1040 999 1096 973 1126 C 1009 1078 1061 1038 1189 1007 Z"
        fill="#4A7B3F"/>
</svg> 